# xmcd
#
# Track frame offsets: 
#        187
#        15242
#        31525
#        47740
#        66037
#        86022
#        98900
#        115285
#        130847
#        150930
#
# Disc length: 2335 seconds
#
# Revision: 2
# Processed by: cddbd v1.5.1PL0 Copyright (c) Steve Scherf et al.
# Submitted via: ExactAudioCopy v0.95a5
#
DISCID=6a091d0a
DTITLE=Mark Collie - Unleashed
DYEAR=1994
DGENRE=
TTITLE0=Hard Lovin' Woman
TTITLE1=It Is No Secret
TTITLE2=All I Want Is You
TTITLE3=Waiting
TTITLE4=Ring Of Fire
TTITLE5=Rainy Day Woman
TTITLE6=When You Belonged To Me
TTITLE7=God Didn't Make Me That Strong
TTITLE8=Lonely Streak
TTITLE9=Unleashed
EXTD=
EXTT0=
EXTT1=
EXTT2=
EXTT3=
EXTT4=
EXTT5=
EXTT6=
EXTT7=
EXTT8=
EXTT9=
PLAYORDER=
